<?xml version="1.0" encoding="utf-8"?>
<!-- Generator: Adobe Illustrator 26.5.0, SVG Export Plug-In . SVG Version: 6.00 Build 0)  -->
<svg version="1.1" xmlns="http://www.w3.org/2000/svg" xmlns:xlink="http://www.w3.org/1999/xlink" x="0px" y="0px"
	 viewBox="0 0 841.9 595.3" style="enable-background:new 0 0 841.9 595.3;" xml:space="preserve">
<style type="text/css">
	.st0{display:none;}
	.st1{fill:#3D2105;}
	.st2{fill:#61B1C9;}
</style>
<g id="guides" class="st0">
</g>
<g id="grid">
</g>
<g id="Camada_3">
	<path class="st1" d="M1101.4,235.7c0,0-42.3,18.7-45.1,76.6c-0.3,6.4-1.4,12.7-3.8,18.6c-2.6,6.5,2.3,13.6,9.3,13.6
		c4,0,7.6-2.5,9.2-6.1c2-4.7-0.5-8.6-1.7-13.1c-1.2-4.3-2-8.8-2.5-13.3C1065,296.8,1069.5,259.3,1101.4,235.7z"/>
	<path class="st2" d="M1101.4,318.8c0,0-23.1,0-23.4,0c-0.2,0.2,2,5,2.2,5.5c1.4,3.3,2.6,6.5,2.6,10.2c0,11.6-9.4,21-21,21
		c-11.6,0-21-9.4-21-21c0-2.7,0.5-5.4,1.6-8c1.1-2.6,2.3-4.9,2.9-7.7c0,0.1-3.2,0-3.6,0h-19.5c-1.4,0-2.5,1.1-2.5,2.5
		c0,1.4,1.1,2.5,2.5,2.5h17c-1.6,3.3-2.4,6.9-2.4,10.7c0,13.8,11.2,25,25,25c13.8,0,25-11.2,25-25c0-3.8-0.9-7.5-2.4-10.7h17
		c1.4,0,2.5-1.1,2.5-2.5C1103.9,319.9,1102.8,318.8,1101.4,318.8z"/>
	<g>
		<path d="M1129.4,294.3c-0.3,8.8,3.6,13.6,10.9,13.6c4.7,0,8.8-2.6,8.8-8.5c0-3-1.2-5.2-3.9-6.7c-2.1-1.3-7.6-4-10.9-5.8
			c-4.8-2.7-6.6-6.5-6.6-11c0-7.8,5.7-12.6,13.8-12.6c4,0,7.6,1.3,9.2,2.8l1.2-3.1l1.8,0.4c-1,5.5-1.1,11.1-1.1,13.6l-2,0.2
			c0.1-8.1-4.1-11.8-9.3-11.8c-4.7,0-7.6,3.1-7.6,8c0,3.2,1.3,5.7,4.9,7.6c5.2,2.8,8.8,4.5,11.4,6.1c3.7,2,5.6,4.9,5.6,9.5
			c0,9-7.3,13.4-16.4,13.4c-4.3,0-9.3-1.4-12.2-2.8c0.4-4,0.5-9.1,0.6-12.7L1129.4,294.3z"/>
		<path d="M1179.9,291.8c0,7.3,0.1,11.3,0.3,13c0.1,1.3,0.4,1.9,1.8,2c2.3,0.3,3.4,0.4,5.4,0.5l-0.1,2c-2.3,0-6.9-0.2-11.6-0.2
			c-3.2,0-7.1,0.2-10.3,0.2l-0.3-2c1.6-0.1,3-0.2,5.2-0.4c1.5-0.2,2.2-0.6,2.3-2c0.1-2.4,0.2-5.7,0.2-13.2v-14.8
			c0-4.7,0.1-8.3-0.1-10.2c-9.6,0-10.4,0.6-11.6,3.4c-1,2.3-1.7,4.8-2.5,7.6l-1.8-0.5c0.6-3.5,1.3-10.2,1.5-13.3
			c2,0.5,6.5,0.6,15.1,0.6h5.6c10.6,0,13.7-0.1,16.3-0.6c-0.1,1.1-0.8,7.6-0.6,12.7l-2,0.6c-0.4-4-1.1-6.8-1.6-8.1
			c-0.6-1.9-1.8-2.6-11.4-2.5c-0.1,1.9-0.1,5.7-0.1,9.5V291.8z"/>
		<path d="M1197.8,264.3c2,0,6.7,0.2,10.3,0.2h11.9c4.7,0,8.5-0.2,10-0.4c-0.2,1.8-0.4,8.3-0.1,11.9l-1.9,0.1
			c-0.3-1.8-0.8-4.1-1.6-6c-1-2.5-2-3.3-9-3.3h-5.2c-0.8,0-1.1,0.3-1.1,1.1c-0.1,2.1-0.3,5.3-0.3,9.2v7.7c0.8,0.1,3.1,0.1,4.2,0.1
			c6.4,0,7.3-1.2,8-6h1.8c-0.4,4.7-0.4,10.7-0.1,15.3h-1.9c-0.6-5.4-1.3-7-7.8-7c-1.3,0-3.5,0.1-4.2,0.1v6.8c0,4.1,0.1,8.5,0.3,11
			c0.1,1.4,0.5,1.8,6.9,1.8c6.8,0,8.6-0.4,10.3-2.4c1.6-1.8,2.9-5.2,3.6-8.1l1.8,0.2c-0.1,1.7-1.4,11-1.8,12.8
			c-2.3-0.2-6.6-0.4-15-0.4h-8.8c-3.4,0-8.5,0.2-10.9,0.2l0.1-2l4.4-0.4c1.3-0.1,1.8-0.6,1.9-2.7c0.2-2.7,0.3-6.1,0.3-10.2V279
			c0-5.1-0.1-8.7-0.1-10.7c-0.1-1.3-0.6-1.7-2.3-1.8l-3.6-0.3V264.3z"/>
		<path d="M1257,291.8c0,7.3,0.1,11.3,0.3,13c0.1,1.3,0.4,1.9,1.8,2c2.3,0.3,3.4,0.4,5.4,0.5l-0.1,2c-2.3,0-6.9-0.2-11.6-0.2
			c-3.2,0-7.1,0.2-10.3,0.2l-0.3-2c1.6-0.1,3-0.2,5.2-0.4c1.5-0.2,2.2-0.6,2.3-2c0.1-2.4,0.2-5.7,0.2-13.2v-14.8
			c0-4.7,0.1-8.3-0.1-10.2c-9.6,0-10.4,0.6-11.6,3.4c-1,2.3-1.7,4.8-2.5,7.6l-1.8-0.5c0.6-3.5,1.3-10.2,1.5-13.3
			c2,0.5,6.5,0.6,15.1,0.6h5.6c10.6,0,13.7-0.1,16.3-0.6c-0.1,1.1-0.8,7.6-0.6,12.7l-2,0.6c-0.4-4-1.1-6.8-1.6-8.1
			c-0.6-1.9-1.8-2.6-11.4-2.5c-0.1,1.9-0.1,5.7-0.1,9.5V291.8z"/>
		<path d="M1281,277c0-4.4,0-6.2-0.1-8.1c-0.1-2.1-1.1-2.4-6-2.7l0.1-2c2,0.1,6,0.2,9.3,0.2c3.2,0,7.1-0.2,9.5-0.2l0.1,2
			c-4.5,0.1-5.4,0.6-5.6,2.3c-0.1,1.3-0.3,3.6-0.3,8.1v18.5c0,4.9,0.1,7.5,0.3,9.7c0.1,1.9,1.2,2.3,5.7,2.5l-0.1,2
			c-2.6,0-6.6-0.2-9.7-0.2c-2.9,0-6.9,0.1-9.2,0.2l0.1-2c4.5-0.1,5.6-0.6,5.7-2.4c0.1-1.6,0.3-4,0.3-9.6V277z"/>
		<path class="st1" d="M1331.4,279.5c-0.6-7.3-3.9-13.9-11.9-13.9c-4.4,0-7.5,1.6-10,4.8c-2.8,3.5-4.5,9.3-4.5,16.3
			c0,5.7,1.3,10.9,3.7,14.3c2.6,4.1,6.6,6,11,6c6.5,0,11-3.2,13.6-10.7l1.9,1.2c-2.5,8.1-8.3,12.7-17.7,12.7c-7.1,0-12.5-2.3-16-7.1
			c-2.9-3.7-4.5-9.3-4.5-15.6c0-8.3,2.9-14.5,7.1-18.5c3.6-3.5,8.5-5.7,14.9-5.7c5.7,0,9.8,1.8,11.9,4l1.3-3.6l1.7,0.6
			c-0.6,3.9-0.9,10.2-0.6,14.9L1331.4,279.5z"/>
		<path class="st1" d="M1381,309.3c-1.6,0-5.2-0.2-8.7-0.2c-3.4,0-6.4,0.2-9.5,0.2l-0.1-2c4.3-0.4,5-0.6,4.7-2
			c-0.7-2.5-2.5-8.6-4-13.2c-1.1-0.1-4.2-0.1-7.2-0.1c-3,0-5.9,0-6.9,0.1c-2,6.1-3,9.2-3.5,11.2c-0.7,3,0,3.7,5.7,4.1l-0.1,2
			c-2.2,0-4.5-0.2-7.7-0.2c-2,0-5.3,0.2-8.1,0.2v-2c4-0.3,5.3-0.8,6.9-4.7c2.3-5.8,10.2-27.8,12.2-33.8c0.6-2,1-3.1,1.2-4.2
			c1.4-0.1,4.5-0.5,5.8-1.1c3.5,11.8,10.8,35.1,13.5,41.5c0.6,1.4,1.5,1.8,3.1,2l2.7,0.2V309.3z M1350.1,289.6
			c1.1,0.1,3.9,0.1,6.6,0.1c2.6,0,5.3-0.1,6-0.1c-1.8-6.1-4.1-13.7-5.9-19.9C1355,274.9,1352.8,281.2,1350.1,289.6z"/>
		<path class="st1" d="M1386,277.9c0-5.6-0.1-7.9-0.1-9.4c-0.1-1.1-0.4-1.7-1.6-1.8l-4.6-0.4l0.5-2c1.4,0,5,0.2,8.1,0.2
			c2.7,0,6.2-0.2,10.9-0.2c7,0,10,1.3,12.1,3.3c2.4,2.2,3.7,5.7,3.7,9.5c0,4.4-1.3,7.8-3.7,10.2c-2.7,2.7-6.5,4-10.7,4
			c-2,0-4-0.4-5.2-0.7l0.2-2c1,0.2,2.3,0.4,3.7,0.4c2.3,0,4.4-0.9,5.7-2.8c1.3-1.8,2.3-4.8,2.3-8.7c0-3.5-0.8-6.5-2.3-8.2
			c-1.8-2-4.2-2.8-7.8-2.8c-3.5,0-4,0.4-4,1.2c-0.1,2.1-0.4,5.8-0.4,11.4v17.7c0,4.1,0.1,6.5,0.2,8c0.1,1.5,0.6,1.8,2.5,2l4.4,0.5
			l-0.1,1.9c-3.1,0-7.2-0.2-11-0.2c-3.2,0-6.6,0.2-9.5,0.2l0.1-1.9l3-0.3c2.4-0.2,3-0.6,3.1-2.7c0.2-3,0.4-8,0.4-13V277.9z"/>
		<path class="st1" d="M1416.8,264.3c2,0,6.7,0.2,10.3,0.2h11.9c4.7,0,8.5-0.2,10-0.4c-0.2,1.8-0.4,8.3-0.1,11.9l-1.9,0.1
			c-0.3-1.8-0.8-4.1-1.6-6c-1-2.5-2-3.3-9-3.3h-5.2c-0.8,0-1.1,0.3-1.1,1.1c-0.1,2.1-0.3,5.3-0.3,9.2v7.7c0.8,0.1,3.1,0.1,4.2,0.1
			c6.4,0,7.3-1.2,8-6h1.8c-0.4,4.7-0.4,10.7-0.1,15.3h-1.9c-0.6-5.4-1.3-7-7.8-7c-1.3,0-3.5,0.1-4.2,0.1v6.8c0,4.1,0.1,8.5,0.3,11
			c0.1,1.4,0.5,1.8,6.9,1.8c6.8,0,8.6-0.4,10.3-2.4c1.6-1.8,2.9-5.2,3.6-8.1l1.8,0.2c-0.1,1.7-1.4,11-1.8,12.8
			c-2.3-0.2-6.6-0.4-15-0.4h-8.8c-3.4,0-8.5,0.2-10.9,0.2l0.1-2l4.4-0.4c1.3-0.1,1.8-0.6,1.9-2.7c0.2-2.7,0.3-6.1,0.3-10.2V279
			c0-5.1-0.1-8.7-0.1-10.7c-0.1-1.3-0.6-1.7-2.3-1.8l-3.6-0.3V264.3z"/>
		<path class="st1" d="M1489.3,295.8c-0.5,3.2-1.2,9.1-1.6,13.6c-1.3-0.1-4.5-0.2-8.5-0.3c-4.1,0-9.4-0.1-14.6-0.1
			c-3.1,0-8.6,0.2-10.4,0.2v-2l4-0.4c1.6-0.1,2-0.6,2.2-1.7c0.2-2.3,0.4-6.9,0.4-12.7v-15.1c0-5.6-0.1-7.8-0.1-9.3
			c0-1.1-0.5-1.5-2-1.6l-3.7-0.3l0.1-2c1.9,0,6.6,0.2,9.2,0.2c2.5,0,5.6-0.2,9.5-0.2l0.2,2l-4,0.4c-1.5,0.1-1.9,0.6-2,1.8
			c-0.2,2.6-0.4,6.3-0.4,11.7v12.5c0,5.9,0.1,11.3,0.2,13.1c0.1,0.8,0.6,1.2,5.2,1.2c7.4,0,9.7-0.5,11.2-2.8c1.4-2,2.4-5,3.3-8.4
			L1489.3,295.8z"/>
		<path class="st1" d="M1525.6,295.8c-0.5,3.2-1.2,9.1-1.6,13.6c-1.3-0.1-4.5-0.2-8.5-0.3c-4.1,0-9.4-0.1-14.6-0.1
			c-3.1,0-8.6,0.2-10.4,0.2v-2l4-0.4c1.6-0.1,2-0.6,2.2-1.7c0.2-2.3,0.4-6.9,0.4-12.7v-15.1c0-5.6-0.1-7.8-0.1-9.3
			c0-1.1-0.5-1.5-2-1.6l-3.7-0.3l0.1-2c1.9,0,6.6,0.2,9.2,0.2c2.5,0,5.6-0.2,9.5-0.2l0.2,2l-4,0.4c-1.5,0.1-1.9,0.6-2,1.8
			c-0.2,2.6-0.4,6.3-0.4,11.7v12.5c0,5.9,0.1,11.3,0.2,13.1c0.1,0.8,0.6,1.2,5.2,1.2c7.4,0,9.7-0.5,11.2-2.8c1.4-2,2.4-5,3.3-8.4
			L1525.6,295.8z"/>
		<path class="st1" d="M1533.2,277c0-4.4,0-6.2-0.1-8.1c-0.1-2.1-1.1-2.4-6-2.7l0.1-2c2,0.1,6,0.2,9.3,0.2c3.2,0,7.1-0.2,9.5-0.2
			l0.1,2c-4.5,0.1-5.4,0.6-5.6,2.3c-0.1,1.3-0.3,3.6-0.3,8.1v18.5c0,4.9,0.1,7.5,0.3,9.7c0.1,1.9,1.2,2.3,5.7,2.5l-0.1,2
			c-2.6,0-6.6-0.2-9.7-0.2c-2.9,0-6.9,0.1-9.2,0.2l0.1-2c4.5-0.1,5.6-0.6,5.7-2.4c0.1-1.6,0.3-4,0.3-9.6V277z"/>
	</g>
	<g>
		<g>
			<path d="M1197.6,335.9v-15.3h0.8v6.9h9.8v-6.9h0.8v15.3h-0.8v-7.5h-9.8v7.5H1197.6z"/>
			<path d="M1228.4,335.9l5.6-15.3h1.2l5.6,15.3h-0.9l-1.8-4.8h-7l-1.8,4.8H1228.4z M1231.4,330.1h6.4l-3.2-8.7L1231.4,330.1z"/>
			<path d="M1260.2,335.9v-15.3h0.8v15.3H1260.2z"/>
			<path d="M1281.6,335.9v-15.3h5.4c1,0,1.8,0.1,2.5,0.4c0.7,0.3,1.2,0.7,1.6,1.3s0.6,1.3,0.6,2.1c0,0.9-0.2,1.6-0.5,2.1
				c-0.3,0.6-0.8,1-1.3,1.3c-0.5,0.3-1,0.5-1.5,0.7l3.2,7.5h-1l-3.1-7.3h-5.2v7.3H1281.6z M1282.4,327.7h3.9c1.5,0,2.6-0.2,3.4-0.7
				c0.8-0.5,1.2-1.3,1.2-2.5c0-1.1-0.3-1.9-1-2.4s-1.6-0.7-2.9-0.7h-4.6V327.7z"/>
			<path d="M1337.9,336.1c-1.3,0-2.4-0.3-3.3-0.9c-0.9-0.6-1.6-1.5-2.1-2.6s-0.7-2.6-0.7-4.3c0-1.7,0.2-3.2,0.7-4.3s1.1-2.1,2.1-2.7
				c0.9-0.6,2-0.9,3.3-0.9c1,0,1.9,0.2,2.7,0.7s1.4,1,1.8,1.7c0.5,0.7,0.7,1.4,0.8,2.2h-0.9c-0.1-0.7-0.4-1.3-0.8-1.8
				c-0.4-0.6-0.9-1-1.5-1.4c-0.6-0.3-1.3-0.5-2.2-0.5c-1.1,0-2.1,0.3-2.9,0.8c-0.8,0.5-1.3,1.3-1.7,2.3c-0.4,1-0.6,2.3-0.6,3.9
				c0,2.4,0.4,4.1,1.3,5.3c0.9,1.1,2.1,1.7,3.9,1.7c0.8,0,1.6-0.2,2.2-0.5c0.6-0.3,1.1-0.8,1.5-1.4s0.6-1.2,0.8-1.8h0.9
				c-0.1,0.6-0.2,1.1-0.5,1.7c-0.3,0.5-0.7,1-1.1,1.5c-0.5,0.4-1,0.8-1.6,1C1339.3,336,1338.6,336.1,1337.9,336.1z"/>
			<path d="M1362.7,335.9l0-15.3h0.9V335h7.8v0.9H1362.7z"/>
			<path d="M1390.8,335.9v-15.3h0.8v15.3H1390.8z"/>
			<path d="M1412.2,335.9v-15.3h0.7l9.2,13.7v-13.7h0.8v15.3h-0.7l-9.2-13.6v13.6H1412.2z"/>
			<path d="M1443.5,335.9v-15.3h0.8v15.3H1443.5z"/>
			<path d="M1469.9,336.1c-1.3,0-2.4-0.3-3.3-0.9c-0.9-0.6-1.6-1.5-2.1-2.6s-0.7-2.6-0.7-4.3c0-1.7,0.2-3.2,0.7-4.3s1.1-2.1,2.1-2.7
				c0.9-0.6,2-0.9,3.3-0.9c1,0,1.9,0.2,2.7,0.7s1.4,1,1.8,1.7c0.5,0.7,0.7,1.4,0.8,2.2h-0.9c-0.1-0.7-0.4-1.3-0.8-1.8
				c-0.4-0.6-0.9-1-1.5-1.4c-0.6-0.3-1.3-0.5-2.2-0.5c-1.1,0-2.1,0.3-2.9,0.8c-0.8,0.5-1.3,1.3-1.7,2.3c-0.4,1-0.6,2.3-0.6,3.9
				c0,2.4,0.4,4.1,1.3,5.3c0.9,1.1,2.1,1.7,3.9,1.7c0.8,0,1.6-0.2,2.2-0.5c0.6-0.3,1.1-0.8,1.5-1.4s0.6-1.2,0.8-1.8h0.9
				c-0.1,0.6-0.2,1.1-0.5,1.7c-0.3,0.5-0.7,1-1.1,1.5c-0.5,0.4-1,0.8-1.6,1C1471.4,336,1470.7,336.1,1469.9,336.1z"/>
		</g>
	</g>
</g>
</svg>
